/* XPM */
static char *green_led[] =
{
/* width height ncolors chars_per_pixel */
"8 11 5 1",
/* colors */
"A c #CCCCCCCCCCCC",
"B c #3333FFFF9999",
"C c #333399996666",
"D c #0000BBBB0000",
"E c #000000000000",
/* pixels */
"AEEEEEEA",
"EBBBBBAE",
"EBDDDDCE",
"EBDDDDCE",
"EBDDDDCE",
"EBDDDDCE",
"EBDDDDCE",
"EBDDDDCE",
"EBDDDDCE",
"EACCCCCE",
"AEEEEEEA",
};
