/* XPM */
static char *bewan[] =
{
/* width height ncolors chars_per_pixel */
"100 42 35 2",
/* colors */
"AA c #FFFFFFFFFFFF",
"BA c #808080808080",
"CA c #C0C0DCDCC0C0",
"DA c #A6A6CACAF0F0",
"EA c #2A2A3F3FAAAA",
"FA c #55553F3FAAAA",
"GA c #55555F5FAAAA",
"HA c #55555F5FFFFF",
"IA c #55557F7FAAAA",
"JA c #55557F7FFFFF",
"KA c #7F7F5F5FAAAA",
"LA c #7F7F5F5FFFFF",
"MA c #7F7F7F7FAAAA",
"NA c #7F7F7F7FFFFF",
"OA c #7F7F9F9FAAAA",
"PA c #7F7F9F9FFFFF",
"AB c #AAAA7F7FAAAA",
"BB c #AAAA7F7FFFFF",
"CB c #AAAA9F9FAAAA",
"DB c #AAAA9F9FFFFF",
"EB c #AAAABFBFAAAA",
"FB c #AAAABFBFFFFF",
"GB c #AAAADFDFFFFF",
"HB c #D4D49F9FFFFF",
"IB c #D4D4BFBFAAAA",
"JB c #D4D4BFBFFFFF",
"KB c #D4D4DFDFFFFF",
"LB c #D4D4FFFFFFFF",
"MB c #FFFFDFDFFFFF",
"NB c #CCCCCCCCFFFF",
"OB c #FFFFCCCCFFFF",
"PB c #CCCCFFFFFFFF",
"AC c #2A2A0000AAAA",
"BC c #2A2A1F1FAAAA",
"CC c #A0A0A0A0A4A4",
/* pixels */
"AAAAAAAAAAAAAAAAAAAAAAAAAAAAAAAAAAAAAAAAAAAAAAAAAAAAAAAAAAAAAAAAAAAAAAAAAAAAAAAAAAAAAAAAAAAAAAAAAAAAAAAAAAAAAAAAAAAAAAAAAAAAAAAAAAAAAAAAAAAAAAAAAAAAAAAAAAAAAAAAAAAAAAAAAAAAAAAAAAAAAAAAAAAAAAAAAAAAAAAA",
"AAEAEAEAEAEAEAEAEAEAEAEAEAEAEAEAEAEAEAEAEAEAEAEAEAEAEAEAEAEAEAEAEAEAEAEAEAEAEAEAEAEAEAEAEAEAEAEAEAEAEAEAEAEAEAEAEAEAEAEAEAEAEAEAEAEAEAEAEAEAEAEAEAEAEAEAEAEAEAEAEAEAEAEAEAEAEAEAEAEAEAEAEAEAEAEAEAEAEAAA",
"AAEAEAEAEAEAEAEAEAEAEAEAEAEAEAEAEAEAEAEAEAEAEAEAEAEAEAEAEAEAEAEAEAEAEAEAEAEAEAEAEAEAEAEAEAEAEAEAEAEAEAEAEAEAEAEAEAEAEAEAEAEAEAEAEAEAEAEAEAEAEAEAEAEAEAEAEAEAEAEAEAEAEAEAEAEAEAEAEAEAEAEAEAEAEAEAEAEAEAAA",
"AAEAEAEAEAEAEAEAEAEAEAEAEAEAEAEAEAEAEAEAEAEAEAEAEAEAEAEAEAEAEAEAEAEAEAEAEAEAEAEAEAEAEAEAEAEAEAEAEAEAEAEAEAEAEAEAEAEAEAEAEAEAEAEAEAEAEAEAEAEAEAEAEAEAEAEAEAEAEAEAEAEAEAEAEAEAEAEAEAEAEAEAEAEAEAEAEAEAEAAA",
"AAEAEAEAEAFBAAKBAAKBAAKBAAKBAAKBCACAGAEAEAEAEAEAEAEAEAEAEAEAEAEAEAEAEAFBAAKBAAKBCAFAEAEAGAKBAAKBAAKBEAEAEAEAFAAAKBAAKBAAGAEAEAEAEAEAFAOAFBCAAAKBAAKBAAMAEAEAGAAAKBAAKBAAGAEAEAEAEADBAAKBAAKBOAEAEAEAEAAA",
"AAEAEAEAFAAAAAAAAAAAAAAAAAAAAAAAAAAAAABAEAEAEAEAEAEAEAEAEAEAEAEAEAEAEACCAAAAAAAAAAEAEAEAGAAAAAAAAAAABAEAEAEAMAAAAAAAAAKBEAEAEAEAEADAAAAAAAAAAAAAAAAAAAJBEAEAGAAAAAAAAAAAAAGAEAEAEAEBAAAAAAAAOAEAEAEAEAAA",
"AAEAEAEAIAAAAAAAAAAAAAAAAAAAAAAAAAAAAAAAGAEAEAEAEAEAEAEAEAEAEAEAEAEAEANAAAAAAAAAAAGAEAEAPAAAAAAAAAAAJBEAEAEAEBAAAAAAAAOAEAEAEAIAAAAAAAAAAAAAAAAAAAAAAACAEAEAGAAAAAAAAAAAAAAANAEAEACAAAAAAAAAOAEAEAEAEAAA",
"AAEAEAEABBKBKBKBKBKBKBKBKBAAAAAAAAAAAAAAOAEAEAEAEAEAEAEAEAEAEAEAEAEAEAGAAAAAAAAAAANAEAEACCAAAAAAAAAAAAFAEAEAKBAAAAAAAAGAEAEAMAAAAAAAAAAAAAAAAAKBKBKBKBKBGAEAGAAAAAAAAAAAAAAAAAIAEAHBAAAAAAAAOAEAEAEAEAAA",
"AAEAEAEAEABAMAMAMAMAEAEAEAFAMAAAAAAAAAAAOAEAEAEAEAGAMACBDADACBMAGAEAEAEAAAAAAAAAAAOAEAEADAAAAAAAAAAAAAGAEAFAAAAAAAAAAAEAEAFAAAAAAAAAAAAAAAOAMAMAMAMAMAGAEAEAGAAAAAAAAAAAAAAAAACABCCAAAAAAAAAOAEAEAEAEAAA",
"AAEAEAEAEAKBAAAAAAAAEAEAEAEADBAAAAAAAAAAGAEAEAFADAAAAAAAAAAAAAAAAACAKAEAEBAAAAAAAAFBEAEACAAAAAAAAAAAAACCEAGAAAAAAAAADAEAEAOAAAAAAAAAAACCFAEACCAAAAAAAAFBEAEAGAAAAAAAAAAAAAAAAAAACAJBAAAAAAAAOAEAEAEAEAAA",
"AAEAEAEAEAKBAAAAAAKBEAEAFAKBAAAAAAAAAAFAEAEAEAPBAAAAAAAAAAAAAAAAAAAAAAFAMAAAAAAAAAIBEAEAAAAAAAAAAAAAAAKBEACBAAAAAAAADBEAEAKBAAAAAAAADAEAEAEADAAAAAAAAACCEAEAGAAAAAAAAAAAAAAAAAAAAAAAAAAAAAAAOAEAEAEAEAAA",
"AAEAEAEAEAKBAAAAAAAAEAEACAAAAAAAAAAACAEAEAEAMAAAAAAAAAAAAAAAAAAAAAAAAAGAFAAAAAAAAAAAEAGAAAAAAAAAAAAAAAAAEADAAAAAAAAABAEAGAAAAAAAAAAAGAEAEAEACBAAAAAAAAFBEAEAGAAAAAAAAAAAMAAAAAAAAAAAAAAAAAAAOAEAEAEAEAAA",
"AAEAEAEAEAKBAAAAAAKBMAKBAAAAAAAAAAAAGAEAEAEAFBAAAAAAAAFBGAGAAAAAAAAAAAGAEACCAAAAAAAAEABAAAAAAAFBAAAAAAAAGAAAAAAAAAAAGAEAABAAAAAAAAAADBCADBCAKBAAAAAAAACCEAEAGAAAAAAAAAAAGAPAKBAAAAAAAAAAAAAAOAEAEAEAEAAA",
"AAEAEAEAEAKBAAAAAAAAEAEACCAAAAAAAAAAAAGAEAEAKBAAAAAAAAFAEAFAAAAAAAAAAAEAEAGAAAAAAAAAMACBAAAAAAABAAAAAAAAOAAAAAAAAAMBEAEAGBAAAAAAAAAAAAAAAAAAAAAAAAAAAADBEAEAGAAAAAAAAAAAGAEAGAAAAAAAAAAAAAAAOAEAEAEAEAAA",
"AAEAEAEAEAKBAAAAAAKBEAEAFADAAAAAAAAAAAKBFAEAJBAAAAAAAAGAEACAAAAAAAAACBEAEAFAAAAAAAAACBNBAAAAAAGANBAAAAAADBAAAAAAAADAEAEAKBAAAAAAAAAAAAAAAAAAAAAAAAAAAAEBEAEAGAAAAAAAAAAAGAEAEACAAAAAAAAAAAAAOAEAEAEAEAAA",
"AAEAEAEAEAKBAAAAAAAAEAEAEAEAGAAAAAAAAAAACAEAEBAAAAAAAACAKBAAAAAAAAOAFAEAEAEADAAAAAAAKBAAAAAAAAGABAAAAAAAAAAAAAAAAAIAEAEAKBAAAAAAAAAAAAAAAAAAAAAAAAAAAADBEAEAGAAAAAAAAAAAGAEAEAFAJBAAAAAAAAAAOAEAEAEAEAAA",
"AAEAEAEAEAKBAAAAAAKBEAEAEAEAEADBAAAAAAAAAAFAGAAAAAAAAAAAAAAAAAAABBEAEAEAEAEACAAAAAAAAAAAAAAAKBEAGAAAAAAAAAAAAAAAKBEAEAEAKBAAAAAAAAMAMAMAMAMANBAAAAAAAAEBEAEAGAAAAAAAAAAAGAEAEAEAEACAAAAAAAAAOAEAEAEAEAAA",
"AAEAEAEAEAKBAAAAAAAAEABCBCBCEACCAAAAAAAAAAGAEAKBAAAAAAAAAAAAAACBEAEAEAEAEAEALAAAAAAAAAAAAAAADAEAEAAAAAAAAAAAAAAADAEAEAEAKBAAAAAAAAGABCEAEAEACBAAAAAAAADBEAEAGAAAAAAAAAAAGAEAEAEAEAJBAAAAAAAAOAEAEAEAEAAA",
"AAEAEAEAEAKBAAAAAAAACAJBCAOBCAAAAAAAAAAAAAGAEAGAAAAAAAAAAAAACCDBOACBGAEAEAEAIAAAAAAAAAAAAAAAABEAEANBAAAAAAAAAAAAGAEAEAEAEBAAAAAAAAMAEAEAEAEAFBAAAAAAAAEBEAEAGAAAAAAAAAAAGAEAEAEAEAEBAAAAAAAAOAEAEAEAEAAA",
"AAEAEAEAEAKBAAAAAAAAAAAAAAAAAAAAAAAAAAAAAAFAEAEAMAAAAAAAAAAAAAAAAAAAGAEAEAEAFAAAAAAAAAAAAAAAGAEAEACAAAAAAAAAAAAAEAEAEAEAMAAAAAAAAANBEAEAEAEADAAAAAAAAADBEAEAGAAAAAAAAAAAGAEAEAEAEACAAAAAAAAAOAEAEAEAEAAA",
"AAEAEAEAEAKBAAAAAAAAAAAAAAAAAAAAAAAAAACAGAEAEAEAEANACAAAAAAAAAAAAAFBEAEAEAEAEAFBAAAAAAAAAADAEAEAEANAAAAAAAAAAACAEAEAEAEAEAAAAAAAAAAAMAEAEAEADAAAAAAAAAEBEAEAGAAAAAAAAAAAGAEAEAEAEADBAAAAAAAAOAEAEAEAEAAA",
"AAEAEAEAEAKBAAAAAAAAAAAAAAAAAAAAAAKBMAEAEAEAEAEAEAEAEAKAKBAAAAAAAAGAEAEAEAEAEABAAAAAAAAAAAOAEAEAEAIAAAAAAAAAAADBEAEAEAEAEAFBAAAAAAAAAAEAEAEADAAAAAAAAADBEAEAGAAAAAAAAAAAGAEAEAEAEACAAAAAAAAAOAEAEAEAEAAA",
"AAEAEAEAEAGAGAGAGAGAGAGAGAGAGAGAFAEAEAEAEAEAEAEAEAEAEAEAEAGAGAGAGAEAEAEAEAEAEAEAGAGAGAGAGAFAEAEAEAGAGAGAGAGAGAEAEAEAEAEAEAMAAAAAAAAAAAGAEAEAGAGAGAGAGAGAEAEAEAGAGAGAGAGAEAEAEAEAEAFAGAGAGAGAGAEAEAEAEAAA",
"AAEAEAEAEAEAEAEAEAEAEAEAEAEAEAEAEAEAEAEAEAEAEAEAEAEAEAEAEAEAEAEAEAEAEAEAEAEAEAEAEAEAEAEAEAEAEAEAEAEAEAEAEAEAEAEAEAEAEAEAEAFAKBAAKBIAFAEAEAEAEAEAEAEAEAEAEAEAEAEAEAEAEAEAEAEAEAEAEAEAEAEAEAEAEAEAEAEAEAAA",
"AAEAEAEAEAEAEAEAEAEAEAEAEAEAEAEAEAEAEAEAEAEAEAEAEAEAEAEAEAEAEAEAEAEAEAEAEAEAEAEAEAEAEAEAEAEAEAEAEAEAEAEAEAEAEAEAEAEAEAEAEAEAGAOAEAEAEAEAEAEAEAEAEAEAEAEAEAEAEAEAEAEAEAEAEAEAEAEAEAEAEAEAEAEAEAEAEAEAEAAA",
"AAEAEAEAEAEAEAEAEAEAEAEAEAEAEAEAEAEAEAEAEAEAEAEAEAEAEAEAEAEAEAEAEAEAEAEAEAEAEAEAEAEAEAEAEAEAEAEAEAEAEAEAEAEAEAEAEAEAEAEAEAEAEAEAEAEAEAEAEAEAEAEAEAEAEAEAEAEAEAEAEAEAEAEAEAEAEAEAEAEAEAEAEAEAEAEAEAEAEAAA",
"AACBKBAAAAKBAAKBAAKBAAKBAAKBAAKBAAKBAAKBAAKBAAAAKBAAAAKBAAAAKBAAKBAAKBAAKBAAKBAAAAKBAAAAKBAAAAKBAAAAKBAAAAKBAAAAAAKBAAAAKBAAKBAAAAKBAAAAKBAAAAKBAAAAKBAAAAKBAAAAKBAAAAKBAAKBAAKBAAKBAAAAKBAAAAKBAAAANAAA",
"AAPAAAAAAAAAAAAAAAAAAAAAAAAAAAAAAAAAAAAAAAAAAAAAAAAAAAAAAAAAAAAAAAAAAAAAAAAAAAAAAAAAAAAAAAAAAAAAKBKBAAAAAAAAAAAAAAAAAAAAAAAAAAAAAAAAAAAAAAAAAAAAAAAAAAAAAAAAAAAAAAAAAAAAAAAAAAAAAAAAAAAAAAAAAAAAAAAACCAA",
"AACBAAAAAAAAAAAAAAAAAAAAAAAAAAAAAAAAAAAAAAAAAAAAAAAAAAAAAAAAAAAAAAAAAAAAAAAAAAAAAAAAAAAAAAAAAADBEAAAAAAAAAAAAAAAAAAAAAAAAAAAAAAAAAAAAAAAAAAAAAAAAAAAAAAAAAAAAAAAAAAAAAAAAAAAAAAAAAAAAAAAAAAAAAAAAAAAPAAA",
"AAPAAAAAAAAAAAAAKBCAFBIBNBCACANBAAAAKBCAFBCAAAAAAAAACAFBCCAAAAAAAADBCACAJBCACAFBKBAAKBCADBMAGAEAMACAAAAAAAAAAAKBCAKBEBDBEBAAAAAAKBCACAEBDBCAAAKBCADBCCNBAAAAAACAJBCCDBAAAAAAAAKBCACACAJBCACAFBKBAAAACBAA",
"AACBAAAAAAAAAACAEABCKBAAAAJBGAGAAAKBOABCEAEAFBAAAAKBEABCEADBAACAEAEAFAAAAAAAMAEAKBAACBMAGAEAEAGAMAKBAAAAKBCBGAGAJBAAJAEABCNAAAAAKBEAACEAEAAACBGAEAEAEAGAAAKBGAEABCEAEAKAAAAAKBFAACBBAAAAKBFAEAKBAAAAPAAA",
"AAPAAAAAAAAAAAHAEAEABAKBAAAAAAFBAAAAAAFAEAEAMAAAAAAAKBKAEACAAAMAEAEAEAIBAAAAAAMAAAAAAAKBEAEAEACCAAAAAAKBGABCEAKBAAAAGAEAEACAAAAAAAEAEAEACBCBFBKBEAEAEAABCBMAKBMAEAEAEACBAAAACBEAEAIAAAAAAAKBBAAAAAAACBAA",
"AACBAAAAAAAAAACAKAEAEAEAMACAAAAAAAAAAAGAEAEAFAAAAAAAKBPACAAAAAKBKAEAEAEAGACCAAAAAAAACAGAEAEAGAAAAAAAMAEAEAFADACADBGAMACCKBAAAAAAGAEAEAFADBAAKBGAEAEAEAPACAAANBEAEAEABAAAAAAAAAMAEAEAEAKACAAAAAAAAAAAPAAA",
"AAPAAAAAAAAAAAAAAADBEAEAEAACCBAAAAAAAAABEAEAEAKBAACBGAKBAAAAAAAAAAJBBAEAEAEANAAAAAAAFAEAEAGAAAAAAADBEAEAEAGBNBNBAAAAAAAAAAAAAADAEAEAEAPAAAAAGAEAEAEADAAAAAAAIAEAEAGAAAAAAAAAAAAAKBGAEAEAEAFBAAAAAAAACBAA",
"AACBAAAAAAMAGAKBAAAAAANAEAEADBAAAAAAAACCEAEAEADBCCCAMBAAAADBIAKBAAAAAADBEAEACBAAAABBEAEAEAJBCAKBAACCEAEAEAOACAMBCACACAJBAAAACAFAEAEAMAAAAACCEAEAEACAAAAAAACBEAEAEACCDAAACCJAKBAAAAAAMAEAEACAAAAAAAAAPAAA",
"AAPAAAAAKBGABAGAOADACBBACCAAAAAAAAAAAAGBEAEAEAMAAAAAAAAAAAMABAGAABDADABAMANBAAAAAAOAEAEAGAOAJBAAAAAACBGAFAEAEAFAMACBOBAAAAAAGAGAGAGAAAAAAAMAGAGABAAAAAAAAAOAEAFAGADBAAAAPABAGABADACCMAKAKBAAAAAAAAAACBAA",
"AACBAAAAAAAAAAAAKBKBKBAAAAAAAAAAAAAAAACBBCFAKBAAAAAAAAAAAAAAAAAALBKBKBKBAAAAAAAAAAAAAAKBAAAAAAAAAAAAAAAAAAKBMBAAAAAAAAAAAAAAAAAAAAAAAAAAAAAAAAAAAAAAAAAAAAAAAAAAAAAAAAAAAAAAAAAAKBPBAAAAAAAAAAAAAAAAPAAA",
"AAPAAAAAAAAAAAAAAAAAAAAAAACAIAGANACACAABCBLBAAAAAAAAAAAAAAAAAAAAAAAAAAAAAAAAAAAAAAAAAAAAAAAAAAAAAAAAAAAAAAAAAAAAAAAAAAAAAAAAAAAAAAAAAAAAAAAAAAAAAAAAAAAAAAAAAAAAAAAAAAAAAAAAAAAAAAAAAAAAAAAAAAAAAAAACBAA",
"AACBAAAAAAAAAAAAAAAAAAAAAAJBGAFAGAMAHBAAAAAAAAAAAAAAAAAAAAAAAAAAAAAAAAAAAAAAAAAAAAAAAAAAAAAAAAAAAAAAAAAAAAAAAAAAAAAAAAAAAAAAAAAAAAAAAAAAAAAAAAAAAAAAAAAAAAAAAAAAAAAAAAAAAAAAAAAAAAAAAAAAAAAAAAAAAAAAPAAA",
"AAPAAAAAAAAAAAAAAAAAAAAAAAAAAAAAAAAAAAAAAAAAAAAAAAAAAAAAAAAAAAAAAAAAAAAAAAAAAAAAAAAAAAAAAAAAAAAAAAAAAAAAAAAAAAAAAAAAAAAAAAAAAAAAAAAAAAAAAAAAAAAAAAAAAAAAAAAAAAAAAAAAAAAAAAAAAAAAAAAAAAAAAAAAAAAAAAAACBAA",
"AAGADBOADBOADBOADBOADBOADBOADBOADBOADBOADBOADBOADBOADBOADBOADBOADBOADBOADBOADBOADBOADBOADBOADBOADBOADBOADBOADBOADBOADBOADBOADBOADBOADBOADBOADBOADBOADBOADBOADBOADBOADBOADBOADBOADBOADBOADBOADBOADBOAHAAA",
"AAAAAAAAAAAAAAAAAAAAAAAAAAAAAAAAAAAAAAAAAAAAAAAAAAAAAAAAAAAAAAAAAAAAAAAAAAAAAAAAAAAAAAAAAAAAAAAAAAAAAAAAAAAAAAAAAAAAAAAAAAAAAAAAAAAAAAAAAAAAAAAAAAAAAAAAAAAAAAAAAAAAAAAAAAAAAAAAAAAAAAAAAAAAAAAAAAAAAAAA",
};
