/* XPM */
static char *red_led[] =
{
/* width height ncolors chars_per_pixel */
"8 11 6 1",
/* colors */
"A c #FFFFFFFFFFFF",
"B c #AAAA00000000",
"C c #FFFF00000000",
"D c #CCCC99996666",
"E c #DDDD00000000",
"F c #000000000000",
/* pixels */
"AFFFFFFA",
"FCCCCCDF",
"FCEEEEBF",
"FCEEEEBF",
"FCEEEEBF",
"FCEEEEBF",
"FCEEEEBF",
"FCEEEEBF",
"FCEEEEBF",
"FDBBBBBF",
"AFFFFFFA",
};
